HIERARCHY
ROOT Hips
{
	OFFSET 53.852200 14.014091 58.628304
	CHANNELS 6 Xposition Yposition Zposition Xrotation Yrotation Zrotation
	JOINT spine
	{
		OFFSET 0.000000 -0.429886 7.475594
		CHANNELS 3 Xrotation Yrotation Zrotation
		JOINT spine1
		{
			OFFSET 0.000000 -0.000002 9.923012
			CHANNELS 3 Xrotation Yrotation Zrotation
			JOINT spine2
			{
				OFFSET 0.000000 -0.000002 9.508041
				CHANNELS 3 Xrotation Yrotation Zrotation
				JOINT Neck
				{
					OFFSET 0.000000 -1.163844 24.411102
					CHANNELS 3 Xrotation Yrotation Zrotation
					JOINT Head
					{
						OFFSET 0.000000 -0.000001 7.375229
						CHANNELS 3 Xrotation Yrotation Zrotation
						End Site
						{
							OFFSET 0.000000 5.887406 17.852196
						}
					}
				}
				JOINT RightShoulder
				{
					OFFSET -4.003559 0.557467 10.267899
					CHANNELS 3 Xrotation Yrotation Zrotation
					JOINT RightArm
					{
						OFFSET 0.000000 -0.000003 13.467300
						CHANNELS 3 Xrotation Yrotation Zrotation
						JOINT RightArmRoll
						{
							OFFSET 0.000000 -0.000001 6.798576
							CHANNELS 3 Xrotation Yrotation Zrotation
							JOINT RightForeArm
							{
								OFFSET 0.000000 -0.000003 19.801804
								CHANNELS 3 Xrotation Yrotation Zrotation
								JOINT RightForeArmRoll
								{
									OFFSET 0.000000 -0.000002 7.629044
									CHANNELS 3 Xrotation Yrotation Zrotation
									JOINT RightHand
									{
										OFFSET 0.000000 -0.000002 15.309799
										CHANNELS 3 Xrotation Yrotation Zrotation
										End Site
										{
											OFFSET 0.000000 0.000000 0.100006
										}
									}
								}
							}
						}
					}
				}
				JOINT LeftShoulder
				{
					OFFSET 4.003559 0.557467 10.267899
					CHANNELS 3 Xrotation Yrotation Zrotation
					JOINT LeftArm
					{
						OFFSET 0.000000 -0.000003 13.467300
						CHANNELS 3 Xrotation Yrotation Zrotation
						JOINT LeftArmRoll
						{
							OFFSET 0.000000 -0.000001 6.798576
							CHANNELS 3 Xrotation Yrotation Zrotation
							JOINT LeftForeArm
							{
								OFFSET 0.000000 -0.000003 19.801804
								CHANNELS 3 Xrotation Yrotation Zrotation
								JOINT LeftForeArmRoll
								{
									OFFSET 0.000000 -0.000002 7.629044
									CHANNELS 3 Xrotation Yrotation Zrotation
									JOINT LeftHand
									{
										OFFSET 0.000000 -0.000002 15.309799
										CHANNELS 3 Xrotation Yrotation Zrotation
										End Site
										{
											OFFSET 0.000000 0.000000 0.100006
										}
									}
								}
							}
						}
					}
				}
			}
		}
	}
	JOINT RightUpLeg
	{
		OFFSET -6.626091 1.019270 -1.215050
		CHANNELS 3 Xrotation Yrotation Zrotation
		JOINT RightUpLegRoll
		{
			OFFSET 0.000000 -0.000003 17.951698
			CHANNELS 3 Xrotation Yrotation Zrotation
			JOINT RightLeg
			{
				OFFSET 0.000000 0.000004 -22.230396
				CHANNELS 3 Xrotation Yrotation Zrotation
				JOINT RightLegRoll
				{
					OFFSET 0.000000 -0.000004 22.303196
					CHANNELS 3 Xrotation Yrotation Zrotation
					JOINT RightFoot
					{
						OFFSET 0.000000 -0.000003 18.563599
						CHANNELS 3 Xrotation Yrotation Zrotation
						JOINT RightToeBase
						{
							OFFSET 0.000000 -0.000003 15.518303
							CHANNELS 3 Xrotation Yrotation Zrotation
							End Site
							{
								OFFSET 0.006577 0.866261 7.515388
							}
						}
					}
				}
			}
		}
	}
	JOINT LeftUpLeg
	{
		OFFSET 6.626091 1.019270 -1.215050
		CHANNELS 3 Xrotation Yrotation Zrotation
		JOINT LeftUpLegRoll
		{
			OFFSET 0.000000 -0.000003 17.951797
			CHANNELS 3 Xrotation Yrotation Zrotation
			JOINT LeftLeg
			{
				OFFSET 0.000000 -0.000004 22.230301
				CHANNELS 3 Xrotation Yrotation Zrotation
				JOINT LeftLegRoll
				{
					OFFSET 0.000000 -0.000004 22.509300
					CHANNELS 3 Xrotation Yrotation Zrotation
					JOINT LeftFoot
					{
						OFFSET 0.000000 -0.000003 18.357506
						CHANNELS 3 Xrotation Yrotation Zrotation
						JOINT LeftToeBase
						{
							OFFSET 0.000000 -0.000002 15.518295
							CHANNELS 3 Xrotation Yrotation Zrotation
							End Site
							{
								OFFSET -0.029476 0.866261 7.515381
							}
						}
					}
				}
			}
		}
	}
}
MOTION
Frames: 13
Frame Time: 0.041667
59.070702 -22.204006 93.999603 -2.900757 1.375656 -1.058051 -1.703369 -0.199568 -0.030935 0.572783 -0.387204 -0.065602 2.217870 -0.388038 -0.060823 22.937821 4.086164 -1.793729 -3.512033 -7.182489 -1.109865 -5.722623 -75.278998 -8.081251 -79.565659 -112.230520 -55.822204 -0.000001 -0.000001 -0.000004 0.030267 -3.773799 -1.488767 -0.000001 -0.000007 -3.098118 -5.000178 -7.999609 0.000051 -6.050606 71.690752 8.167416 -55.483003 111.886326 27.696480 0.000002 -0.000000 0.000006 -0.019605 -4.050071 0.806837 0.000001 0.000007 3.050442 -5.000163 7.999909 0.000015 1.102189 179.204151 -1.328321 -179.999991 0.000005 -1.017994 175.468967 -2.366596 -0.370487 -0.000001 0.000002 0.045998 69.104815 6.869323 2.191728 25.456930 -7.351689 -0.000003 -1.443385 176.487102 1.898660 -0.000004 -0.000005 -1.018820 -6.637112 2.110007 0.324037 -0.000003 -0.000004 -0.097226 69.535936 -6.860249 -2.187145 25.456916 7.348224 0.000004 
59.072197 -22.186905 94.003510 -2.872438 1.373882 -1.074381 -1.705140 -0.198150 -0.031373 0.570921 -0.385282 -0.066491 2.216009 -0.386121 -0.061744 22.955503 4.073808 -1.794788 -3.513397 -7.176846 -1.110770 -5.722514 -75.275085 -8.080846 -79.584381 -112.281405 -55.860647 -0.000001 0.000000 -0.000002 0.030286 -3.781468 -1.488813 -0.000001 -0.000006 -3.098117 -5.000177 -7.999606 0.000053 -6.127071 71.680479 8.250787 -55.536258 111.922758 27.756137 -0.000000 0.000001 0.000005 -0.019608 -4.053650 0.806835 0.000000 0.000007 3.050289 -5.000161 7.999909 0.000017 1.052963 179.205121 -1.332189 -179.999991 0.000005 -1.016997 175.458722 -2.367556 -0.369992 -0.000001 0.000002 0.045997 69.105129 6.869304 2.191806 25.456930 -7.351688 -0.000003 -1.491127 176.493181 1.909859 -0.000004 -0.000004 -1.018750 -6.647856 2.104617 0.324049 -0.000003 -0.000004 -0.097226 69.539208 -6.860248 -2.187243 25.456914 7.348225 0.000004 
59.062996 -22.165810 94.002701 -2.844117 1.371949 -1.090608 -1.707100 -0.196687 -0.031885 0.568721 -0.383344 -0.067537 2.213810 -0.384190 -0.062823 22.975109 4.062326 -1.796032 -3.515831 -7.172188 -1.111739 -5.721316 -75.270392 -8.079219 -79.601572 -112.332412 -55.897428 0.000000 -0.000001 -0.000003 0.030303 -3.788998 -1.488880 -0.000001 -0.000007 -3.098119 -5.000179 -7.999609 0.000050 -6.204949 71.670937 8.335769 -55.593293 111.957995 27.818802 0.000000 0.000000 0.000001 -0.019606 -4.057581 0.806837 0.000001 0.000007 3.050130 -5.000164 7.999909 0.000015 1.003867 179.206105 -1.335920 -179.999991 0.000005 -1.016997 175.448545 -2.369512 -0.369559 -0.000001 0.000002 0.045994 69.105341 6.869317 2.191793 25.456928 -7.351689 -0.000003 -1.538897 176.498263 1.921058 -0.000004 -0.000004 -1.018720 -6.658809 2.099306 0.324055 -0.000003 -0.000004 -0.097226 69.542814 -6.860258 -2.187123 25.456914 7.348225 0.000005 
59.058697 -22.145607 94.000908 -2.815793 1.369875 -1.106760 -1.709208 -0.195189 -0.032449 0.566286 -0.381395 -0.068692 2.211379 -0.382249 -0.064012 22.996352 4.051453 -1.797421 -3.519012 -7.168200 -1.112753 -5.719309 -75.265119 -8.076682 -79.617227 -112.383427 -55.932559 -0.000001 -0.000002 -0.000004 0.030317 -3.796419 -1.488961 -0.000001 -0.000007 -3.098118 -5.000177 -7.999608 0.000052 -6.283733 71.661833 8.421802 -55.652361 111.992761 27.882849 0.000001 -0.000000 0.000003 -0.019606 -4.061752 0.806836 0.000001 0.000007 3.049980 -5.000160 7.999909 0.000020 0.954861 179.207116 -1.339565 -179.999991 0.000005 -1.016996 175.438450 -2.371480 -0.370136 -0.000001 0.000002 0.045990 69.105545 6.869291 2.191876 25.456931 -7.351688 -0.000002 -1.586676 176.504342 1.932210 -0.000005 -0.000004 -1.018700 -6.669926 2.094074 0.324061 -0.000003 -0.000004 -0.097226 69.546509 -6.860240 -2.187290 25.456914 7.348225 0.000004 
59.058495 -22.129910 94.002808 -2.787475 1.367731 -1.122873 -1.711386 -0.193673 -0.033042 0.563718 -0.379439 -0.069910 2.208808 -0.380302 -0.065264 23.018301 4.040940 -1.798879 -3.522610 -7.164619 -1.113792 -5.716914 -75.259655 -8.073698 -79.632363 -112.434483 -55.967123 -0.000000 0.000000 -0.000001 0.030325 -3.803789 -1.489063 0.000000 -0.000007 -3.098111 -5.000179 -7.999608 0.000052 -6.363084 71.653076 8.508482 -55.711104 112.027465 27.946194 -0.000001 -0.000000 0.000003 -0.019607 -4.066060 0.806835 0.000002 0.000006 3.049829 -5.000162 7.999909 0.000014 0.905907 179.208113 -1.343141 -179.999991 0.000005 -1.016996 175.428368 -2.373434 -0.369715 -0.000001 0.000002 0.045984 69.105655 6.869298 2.191872 25.456931 -7.351687 -0.000003 -1.634464 176.509410 1.943381 -0.000005 -0.000005 -1.018700 -6.681121 2.088871 0.324064 -0.000003 -0.000004 -0.097226 69.550321 -6.860261 -2.187258 25.456911 7.348224 0.000004 
59.055897 -22.109306 94.005310 -2.759156 1.365546 -1.138966 -1.713585 -0.192152 -0.033642 0.561115 -0.377481 -0.071143 2.206207 -0.378354 -0.066531 23.040552 4.030502 -1.800354 -3.526324 -7.161128 -1.114840 -5.714400 -75.254191 -8.070586 -79.646986 -112.485668 -56.001141 -0.000002 -0.000001 -0.000002 0.030338 -3.811140 -1.489155 -0.000003 -0.000007 -3.098109 -5.000181 -7.999607 0.000052 -6.442519 71.644381 8.595257 -55.771691 112.061630 28.011331 0.000001 -0.000000 0.000004 -0.019605 -4.070409 0.806837 0.000001 0.000005 3.049669 -5.000161 7.999910 0.000016 0.856965 179.210080 -1.346705 -179.999991 0.000005 -1.015999 175.418314 -2.374395 -0.369214 -0.000001 0.000002 0.045978 69.105764 6.869304 2.191866 25.456931 -7.351688 -0.000003 -1.682252 176.515488 1.954515 -0.000005 -0.000004 -1.018700 -6.692347 2.083678 0.324065 -0.000003 -0.000004 -0.097226 69.554234 -6.860250 -2.187214 25.456912 7.348225 0.000005 
59.051197 -22.082809 94.003510 -2.730833 1.363381 -1.155076 -1.715758 -0.190641 -0.034227 0.558579 -0.375527 -0.072345 2.203667 -0.376408 -0.067767 23.062398 4.019896 -1.801783 -3.529810 -7.157439 -1.115871 -5.712087 -75.248720 -8.067700 -79.661767 -112.536738 -56.035319 0.000001 0.000000 -0.000004 0.030351 -3.818520 -1.489248 -0.000001 -0.000007 -3.098110 -5.000180 -7.999608 0.000053 -6.521528 71.635366 8.681567 -55.830086 112.096375 28.074311 0.000002 0.000000 0.000002 -0.019608 -4.074692 0.806832 0.000003 0.000006 3.049520 -5.000162 7.999908 0.000017 0.807996 179.211077 -1.350306 -179.999991 0.000005 -1.015999 175.408219 -2.376363 -0.369792 -0.000001 0.000002 0.045973 69.105873 6.869308 2.191860 25.456930 -7.351688 -0.000003 -1.730030 176.521581 1.965638 -0.000005 -0.000004 -1.018690 -6.703522 2.078466 0.324063 -0.000003 -0.000004 -0.097226 69.558032 -6.860233 -2.187278 25.456914 7.348225 0.000004 
59.051796 -22.065205 94.002007 -2.702513 1.361285 -1.171240 -1.717819 -0.189152 -0.034776 0.556212 -0.373580 -0.073468 2.201297 -0.374469 -0.068923 23.083135 4.008855 -1.803097 -3.532787 -7.153263 -1.116872 -5.710350 -75.243741 -8.065463 -79.677244 -112.587862 -56.070249 -0.000000 -0.000002 -0.000005 0.030365 -3.825970 -1.489333 -0.000003 -0.000007 -3.098109 -5.000180 -7.999609 0.000053 -6.599726 71.626042 8.766963 -55.886418 112.131789 28.135651 0.000000 -0.000001 0.000004 -0.019606 -4.078790 0.806838 0.000004 0.000006 3.049371 -5.000162 7.999909 0.000017 0.758963 179.212074 -1.353988 -179.999991 0.000005 -1.015999 175.398110 -2.378318 -0.369374 -0.000001 0.000002 0.045969 69.106085 6.869320 2.191848 25.456928 -7.351689 -0.000002 -1.777808 176.527660 1.976771 -0.000005 -0.000005 -1.018670 -6.714587 2.073214 0.324061 -0.000003 -0.000004 -0.097226 69.561631 -6.860242 -2.187356 25.456912 7.348225 0.000004 
59.042194 -22.036808 94.002701 -2.674193 1.359299 -1.187487 -1.719728 -0.187702 -0.035265 0.554114 -0.371647 -0.074465 2.199207 -0.372542 -0.069954 23.102140 3.997104 -1.804231 -3.534886 -7.148307 -1.117816 -5.709475 -75.239240 -8.064189 -79.693889 -112.638986 -56.106442 -0.000001 -0.000001 -0.000001 0.030383 -3.833550 -1.489401 -0.000001 -0.000006 -3.098108 -5.000179 -7.999608 0.000054 -6.676659 71.616022 8.850927 -55.940557 112.167778 28.195537 0.000000 -0.000001 0.000003 -0.019609 -4.082609 0.806836 0.000004 0.000006 3.049211 -5.000162 7.999909 0.000016 0.709834 179.213058 -1.357769 -179.999991 0.000005 -1.015002 175.387920 -2.379277 -0.368880 -0.000001 0.000002 0.045966 69.106297 6.869332 2.191837 25.456931 -7.351689 -0.000003 -1.825555 176.532755 1.987933 -0.000005 -0.000004 -1.018630 -6.725480 2.067885 0.324058 -0.000003 -0.000004 -0.097226 69.565128 -6.860248 -2.187342 25.456912 7.348226 0.000004 
59.041397 -22.018005 93.998703 -2.645871 1.357462 -1.203855 -1.721409 -0.186304 -0.035673 0.552385 -0.369730 -0.075290 2.197476 -0.370630 -0.070812 23.118906 3.984393 -1.805140 -3.535822 -7.142269 -1.118689 -5.709835 -75.235620 -8.064320 -79.712105 -112.689987 -56.144247 -0.000000 -0.000001 -0.000002 0.030403 -3.841278 -1.489433 -0.000002 -0.000007 -3.098110 -5.000180 -7.999608 0.000054 -6.751837 71.605039 8.932910 -55.992668 112.204422 28.254409 -0.000001 -0.000000 0.000002 -0.019606 -4.086050 0.806834 0.000002 0.000005 3.049060 -5.000162 7.999910 0.000014 0.660559 179.214055 -1.361721 -179.999991 0.000005 -1.015002 175.377634 -2.381245 -0.369469 -0.000001 0.000002 0.045967 69.106707 6.869283 2.192003 25.456931 -7.351689 -0.000003 -1.873292 176.538861 1.999075 -0.000005 -0.000004 -1.018550 -6.736145 2.062447 0.324052 -0.000003 -0.000004 -0.097226 69.568400 -6.860244 -2.187236 25.456911 7.348226 0.000004 
59.039997 -21.999908 93.998306 -2.617556 1.355835 -1.220361 -1.722818 -0.184972 -0.035977 0.551130 -0.367836 -0.075895 2.196215 -0.368739 -0.071448 23.132729 3.970453 -1.805753 -3.535268 -7.134857 -1.119473 -5.711705 -75.232970 -8.066154 -79.732719 -112.741022 -56.184617 0.000000 -0.000000 -0.000001 0.030431 -3.849219 -1.489436 -0.000002 -0.000007 -3.098111 -5.000179 -7.999608 0.000053 -6.824766 71.592875 9.012355 -56.036498 112.243313 28.306051 -0.000000 -0.000001 0.000003 -0.019607 -4.089000 0.806837 0.000000 0.000006 3.048911 -5.000163 7.999909 0.000016 0.611110 179.214041 -1.365863 -179.999991 0.000005 -1.015002 175.367224 -2.383198 -0.369051 -0.000001 0.000002 0.045971 69.107130 6.869308 2.191981 25.456926 -7.351688 -0.000003 -1.920999 176.543943 2.010267 -0.000004 -0.000005 -1.018440 -6.746497 2.056891 0.324048 -0.000003 -0.000004 -0.097226 69.571364 -6.860227 -2.187251 25.456912 7.348225 0.000005 
59.032898 -21.976910 93.998909 -2.589235 1.354467 -1.237045 -1.723899 -0.183721 -0.036156 0.550445 -0.365969 -0.076234 2.195534 -0.366870 -0.071818 23.143007 3.955028 -1.806015 -3.532902 -7.125793 -1.120146 -5.715394 -75.231474 -8.070047 -79.755853 -112.791948 -56.227630 0.000001 -0.000001 -0.000002 0.030461 -3.857418 -1.489400 -0.000003 -0.000007 -3.098109 -5.000180 -7.999607 0.000054 -6.895120 71.579474 9.088879 -56.076451 112.283495 28.355252 -0.000000 -0.000000 0.000005 -0.019605 -4.091361 0.806836 0.000002 0.000007 3.048761 -5.000163 7.999909 0.000016 0.561444 179.214028 -1.370251 -179.999991 0.000005 -1.014005 175.356678 -2.384156 -0.369570 -0.000001 0.000002 0.045978 69.107881 6.869311 2.191835 25.456931 -7.351688 -0.000003 -1.968665 176.550035 2.021446 -0.000004 -0.000005 -1.018270 -6.756491 2.051168 0.324042 -0.000003 -0.000004 -0.097226 69.573898 -6.860228 -2.187193 25.456914 7.348223 0.000004 
59.032196 -21.924709 93.994804 -2.560903 1.353387 -1.253934 -1.724565 -0.182564 -0.036187 0.550434 -0.364134 -0.076258 2.195524 -0.365032 -0.071872 23.149015 3.937844 -1.805852 -3.528401 -7.114767 -1.120690 -5.721325 -75.231522 -8.076455 -79.782231 -112.842723 -56.274058 -0.000001 -0.000001 -0.000005 0.030500 -3.865910 -1.489325 -0.000001 -0.000007 -3.098111 -5.000177 -7.999608 0.000053 -6.962271 71.564352 9.161777 -56.110376 112.325439 28.400316 0.000000 -0.000000 0.000004 -0.019606 -4.093019 0.806840 0.000003 0.000006 3.048610 -5.000164 7.999909 0.000016 0.511530 179.214028 -1.374907 -179.999991 0.000005 -1.014005 175.345996 -2.386122 -0.369181 -0.000001 0.000002 0.045991 69.108715 6.869286 2.191980 25.456928 -7.351686 -0.000003 -2.016285 176.555117 2.032685 -0.000004 -0.000004 -1.018040 -6.766041 2.045259 0.324036 -0.000003 -0.000004 -0.097226 69.576016 -6.860245 -2.186966 25.456916 7.348224 0.000004 
